<svg xmlns="http://www.w3.org/2000/svg" xmlns:xlink="http://www.w3.org/1999/xlink" width="500" zoomAndPan="magnify" viewBox="0 0 375 374.999991" height="500" preserveAspectRatio="xMidYMid meet" version="1.0"><defs><g/></defs><g fill="#ffffff" fill-opacity="1"><g transform="translate(-5.121359, 314.122465)"><g><path d="M 15.609375 -74.6875 C 16.171875 -62.59375 19.335938 -51.617188 25.109375 -41.765625 C 30.878906 -31.921875 38.753906 -23.550781 48.734375 -16.65625 C 58.722656 -9.769531 70.46875 -4.425781 83.96875 -0.625 C 97.476562 3.164062 112.25 5.0625 128.28125 5.0625 C 144.601562 5.0625 159.300781 3.09375 172.375 -0.84375 C 185.457031 -4.78125 196.640625 -10.40625 205.921875 -17.71875 C 215.210938 -25.03125 222.390625 -33.890625 227.453125 -44.296875 C 232.515625 -54.710938 235.046875 -66.25 235.046875 -78.90625 C 235.046875 -96.351562 230.679688 -110.628906 221.953125 -121.734375 C 213.234375 -132.847656 202.332031 -142.132812 189.25 -149.59375 C 176.175781 -157.050781 161.972656 -163.3125 146.640625 -168.375 C 131.304688 -173.4375 117.097656 -178.78125 104.015625 -184.40625 C 90.929688 -190.03125 80.03125 -196.5 71.3125 -203.8125 C 62.59375 -211.132812 58.234375 -220.84375 58.234375 -232.9375 C 58.234375 -239.6875 59.707031 -246.015625 62.65625 -251.921875 C 65.613281 -257.828125 69.972656 -262.960938 75.734375 -267.328125 C 81.503906 -271.691406 88.609375 -275.207031 97.046875 -277.875 C 105.492188 -280.550781 115.203125 -281.890625 126.171875 -281.890625 C 144.460938 -281.890625 160.003906 -278.019531 172.796875 -270.28125 C 185.597656 -262.539062 193.125 -250.375 195.375 -233.78125 L 224.078125 -233.78125 C 222.390625 -244.1875 218.585938 -253.539062 212.671875 -261.84375 C 206.765625 -270.144531 199.3125 -277.175781 190.3125 -282.9375 C 181.3125 -288.707031 171.113281 -293.066406 159.71875 -296.015625 C 148.320312 -298.972656 136.4375 -300.453125 124.0625 -300.453125 C 111.125 -300.453125 98.816406 -298.765625 87.140625 -295.390625 C 75.460938 -292.015625 65.191406 -287.085938 56.328125 -280.609375 C 47.472656 -274.140625 40.441406 -265.984375 35.234375 -256.140625 C 30.023438 -246.296875 27.421875 -235.046875 27.421875 -222.390625 C 27.421875 -205.785156 31.640625 -192.421875 40.078125 -182.296875 C 48.523438 -172.171875 59.148438 -163.726562 71.953125 -156.96875 C 84.753906 -150.21875 98.609375 -144.453125 113.515625 -139.671875 C 128.421875 -134.890625 142.273438 -129.472656 155.078125 -123.421875 C 167.878906 -117.378906 178.5 -109.992188 186.9375 -101.265625 C 195.375 -92.546875 199.59375 -80.875 199.59375 -66.25 C 199.59375 -47.96875 192.910156 -34.601562 179.546875 -26.15625 C 166.191406 -17.71875 148.398438 -13.5 126.171875 -13.5 C 108.453125 -13.5 94.242188 -15.816406 83.546875 -20.453125 C 72.859375 -25.097656 64.703125 -30.65625 59.078125 -37.125 C 53.453125 -43.601562 49.65625 -50.285156 47.6875 -57.171875 C 45.71875 -64.066406 44.59375 -69.90625 44.3125 -74.6875 Z M 15.609375 -74.6875 "/></g></g></g><g fill="#ffffff" fill-opacity="1"><g transform="translate(99.73911, 343.794581)"><g><path d="M 147.054688 -312.15625 C 146.246094 -309.730469 149.210938 -301.113281 150.824219 -300.304688 C 151.902344 -299.496094 152.710938 -298.6875 152.710938 -298.417969 C 152.710938 -297.878906 153.519531 -297.609375 154.597656 -297.609375 C 155.941406 -297.609375 172.371094 -302.996094 185.03125 -307.84375 C 187.453125 -308.652344 187.183594 -308.382812 181.527344 -300.574219 C 178.027344 -295.996094 172.371094 -288.722656 168.601562 -284.144531 C 164.5625 -279.027344 162.136719 -275.527344 162.945312 -275.257812 C 163.484375 -274.988281 164.832031 -275.792969 165.90625 -276.871094 C 167.523438 -279.027344 167.523438 -279.027344 165.636719 -276.0625 C 162.675781 -272.292969 163.753906 -271.214844 167.253906 -274.71875 C 171.5625 -279.027344 172.640625 -279.296875 169.949219 -275.792969 C 167.253906 -272.292969 166.984375 -270.945312 168.601562 -269.871094 C 171.023438 -268.792969 172.910156 -269.601562 176.679688 -273.101562 C 179.105469 -275.257812 180.722656 -276.601562 180.722656 -276.332031 C 180.722656 -275.792969 177.757812 -268.792969 174.257812 -260.441406 C 163.214844 -234.855469 157.828125 -221.390625 158.097656 -220.042969 C 158.367188 -219.234375 158.097656 -218.695312 157.558594 -218.695312 C 155.941406 -218.695312 154.328125 -214.65625 155.402344 -214.117188 C 157.019531 -213.578125 156.480469 -211.15625 154.597656 -211.15625 C 153.25 -211.15625 152.171875 -209 147.59375 -197.417969 C 144.363281 -189.878906 140.050781 -179.375 137.898438 -174.257812 C 127.125 -150.015625 123.085938 -139.511719 123.621094 -137.359375 C 123.890625 -135.742188 123.890625 -135.472656 122.816406 -135.742188 C 122.277344 -136.011719 121.46875 -135.742188 121.199219 -135.203125 C 119.3125 -132.242188 105.308594 -96.691406 105.308594 -94.804688 C 105.308594 -91.574219 102.347656 -83.761719 101.269531 -84.03125 C 101 -84.03125 100.460938 -83.222656 100.730469 -82.144531 C 100.730469 -80.800781 100.460938 -80.261719 100.191406 -80.53125 C 99.921875 -80.800781 98.84375 -78.914062 98.035156 -76.488281 C 96.960938 -74.066406 95.613281 -70.296875 94.804688 -68.410156 C 92.917969 -63.832031 89.957031 -51.171875 89.957031 -47.941406 C 89.957031 -46.324219 89.417969 -45.246094 88.609375 -44.707031 C 84.839844 -42.824219 77.835938 -40.9375 75.953125 -41.207031 C 71.101562 -42.015625 38.246094 -24.507812 35.550781 -19.390625 C 34.203125 -16.96875 34.203125 -16.699219 35.550781 -17.238281 C 36.628906 -18.046875 36.628906 -17.777344 35.820312 -16.699219 C 34.742188 -14.8125 18.316406 -4.308594 17.777344 -5.117188 C 17.507812 -5.386719 19.121094 -6.734375 21.007812 -8.617188 C 24.777344 -11.582031 26.125 -13.195312 25.046875 -13.195312 C 22.894531 -13.195312 4.039062 2.15625 2.425781 5.117188 C 2.15625 5.65625 1.886719 7.8125 1.886719 9.964844 C 1.886719 12.121094 1.617188 14.003906 1.078125 14.003906 C 0 14.003906 0.269531 15.621094 1.886719 17.507812 C 2.691406 18.851562 3.230469 20.199219 2.960938 21.277344 C 2.691406 22.625 2.960938 23.433594 3.769531 23.96875 C 4.308594 24.238281 4.847656 25.046875 4.847656 25.855469 C 4.847656 27.203125 5.386719 27.203125 10.773438 26.125 C 12.929688 25.585938 16.429688 25.046875 18.316406 24.777344 C 22.355469 24.507812 23.433594 23.699219 23.433594 21.816406 C 23.433594 20.738281 23.699219 20.46875 24.777344 21.007812 C 25.585938 21.277344 26.664062 20.738281 27.472656 19.929688 C 28.28125 18.851562 29.355469 18.316406 30.164062 18.582031 C 30.703125 18.582031 32.589844 18.046875 33.9375 17.238281 C 37.707031 15.082031 42.285156 12.929688 51.171875 9.15625 C 55.75 7.273438 60.332031 5.117188 61.945312 4.308594 C 64.101562 2.960938 69.488281 1.347656 84.300781 -2.960938 C 92.648438 -5.386719 106.386719 -8.347656 112.3125 -9.15625 C 115.273438 -9.425781 117.96875 -9.964844 118.773438 -10.234375 C 119.3125 -10.503906 122.816406 -10.503906 126.316406 -10.503906 C 130.355469 -10.234375 132.78125 -10.503906 132.78125 -11.3125 C 132.78125 -11.851562 133.050781 -12.929688 133.050781 -13.464844 C 133.050781 -14.542969 133.589844 -14.8125 135.742188 -14.273438 C 136.011719 -14.273438 136.550781 -13.464844 136.550781 -12.660156 C 136.820312 -11.042969 141.128906 -9.964844 141.9375 -11.3125 C 142.207031 -12.121094 145.976562 -10.503906 145.976562 -9.425781 C 145.976562 -8.347656 138.4375 2.691406 137.359375 3.230469 C 136.820312 3.5 136.550781 4.578125 136.550781 5.65625 C 136.550781 7.273438 136.820312 7.542969 138.167969 7.003906 C 139.242188 6.734375 140.320312 7.273438 140.859375 7.8125 C 141.398438 8.617188 142.746094 9.15625 143.824219 9.15625 C 146.515625 9.15625 150.824219 6.734375 150.015625 5.65625 C 150.015625 5.117188 150.285156 4.578125 151.09375 4.308594 C 151.632812 4.039062 152.710938 2.691406 153.25 1.078125 C 154.058594 -0.269531 154.867188 -2.15625 155.402344 -2.960938 C 155.671875 -3.769531 156.480469 -5.65625 156.75 -7.273438 C 157.019531 -9.425781 156.75 -10.503906 155.671875 -11.851562 C 154.867188 -12.929688 154.058594 -14.273438 154.058594 -15.351562 C 154.058594 -19.660156 144.09375 -28.550781 141.9375 -26.394531 C 141.398438 -25.585938 140.859375 -25.585938 140.859375 -26.394531 C 140.589844 -26.933594 138.707031 -27.472656 136.550781 -28.011719 C 131.703125 -28.550781 111.234375 -28.550781 110.425781 -27.742188 C 110.15625 -27.472656 109.886719 -28.28125 109.886719 -29.625 C 109.886719 -31.242188 109.347656 -32.050781 108.808594 -32.050781 C 108 -32.050781 107.464844 -32.859375 107.464844 -34.472656 C 107.464844 -37.4375 109.347656 -45.515625 109.886719 -46.054688 C 110.695312 -46.59375 116.351562 -61.945312 116.621094 -63.832031 C 116.621094 -64.640625 116.890625 -65.449219 117.429688 -65.714844 C 117.699219 -66.253906 127.664062 -89.957031 134.125 -106.117188 C 135.742188 -110.425781 138.167969 -116.351562 139.511719 -118.773438 C 140.589844 -121.46875 141.398438 -123.890625 141.128906 -124.699219 C 141.128906 -125.238281 141.398438 -125.777344 141.9375 -125.777344 C 142.746094 -125.777344 143.285156 -127.125 150.285156 -143.285156 C 152.980469 -149.480469 156.210938 -157.289062 157.558594 -160.519531 C 159.175781 -164.023438 160.789062 -167.792969 161.597656 -169.140625 C 162.136719 -170.21875 164.832031 -176.140625 167.253906 -182.066406 C 173.988281 -198.496094 180.722656 -214.117188 182.335938 -217.082031 C 183.144531 -218.425781 185.03125 -223.007812 186.644531 -227.316406 C 188.261719 -231.894531 192.300781 -241.589844 195.535156 -249.402344 C 199.035156 -256.941406 201.730469 -263.945312 201.730469 -265.023438 C 201.730469 -265.828125 202 -266.636719 202.535156 -266.636719 C 203.34375 -266.636719 210.347656 -281.71875 210.347656 -283.875 C 210.347656 -284.683594 210.617188 -285.222656 210.886719 -285.222656 C 211.695312 -285.222656 216.273438 -297.070312 218.15625 -302.996094 C 218.695312 -305.152344 219.773438 -308.113281 220.582031 -309.460938 C 221.390625 -310.808594 222.199219 -312.960938 222.199219 -314.039062 C 222.199219 -315.925781 222.46875 -316.464844 224.082031 -316.464844 C 225.429688 -316.464844 228.929688 -317.003906 232.164062 -317.542969 C 235.394531 -318.347656 242.398438 -319.425781 248.054688 -319.964844 C 256.671875 -321.042969 258.019531 -321.042969 258.558594 -319.695312 C 258.828125 -318.886719 260.171875 -317.808594 261.519531 -317.273438 C 263.675781 -316.464844 264.753906 -316.464844 266.90625 -317.808594 C 268.253906 -318.347656 270.140625 -319.15625 270.945312 -319.15625 C 271.753906 -319.15625 272.292969 -319.695312 272.292969 -321.042969 C 272.292969 -321.851562 272.5625 -323.464844 272.832031 -324.273438 C 273.101562 -325.082031 272.5625 -326.160156 271.214844 -326.699219 C 269.871094 -327.777344 269.332031 -328.3125 269.871094 -330.199219 C 270.675781 -333.96875 269.601562 -335.855469 266.097656 -337.472656 C 263.136719 -338.816406 260.980469 -339.085938 250.746094 -338.550781 C 236.742188 -337.742188 221.390625 -335.316406 204.691406 -331.277344 C 175.066406 -324.003906 169.949219 -322.660156 161.058594 -319.695312 C 151.363281 -316.195312 147.59375 -314.308594 147.054688 -312.15625 Z M 10.503906 2.691406 C 10.234375 3.230469 9.695312 3.5 9.15625 3.5 C 8.886719 3.5 8.617188 3.230469 8.886719 2.691406 C 9.15625 2.15625 9.695312 1.886719 10.234375 1.886719 C 10.503906 1.886719 10.773438 2.15625 10.503906 2.691406 Z M 131.972656 -27.203125 C 132.242188 -27.203125 132.78125 -26.933594 132.78125 -26.394531 C 132.78125 -25.855469 132.242188 -25.585938 131.972656 -25.585938 C 131.433594 -25.585938 131.164062 -25.855469 131.164062 -26.394531 C 131.164062 -26.933594 131.433594 -27.203125 131.972656 -27.203125 Z M 109.347656 -21.816406 C 110.425781 -22.625 115.542969 -23.164062 127.125 -23.164062 C 140.859375 -23.164062 143.824219 -22.894531 146.246094 -21.546875 C 147.59375 -20.738281 148.941406 -19.390625 148.941406 -18.851562 C 148.941406 -18.316406 148.941406 -18.046875 148.671875 -18.046875 C 141.667969 -21.816406 137.089844 -22.894531 137.089844 -20.738281 C 137.089844 -19.390625 132.78125 -19.660156 132.511719 -20.738281 C 132.242188 -22.085938 123.355469 -22.355469 113.65625 -21.277344 C 108.808594 -20.738281 108.269531 -20.738281 109.347656 -21.816406 Z M 155.671875 -206.039062 C 156.210938 -205.230469 156.210938 -204.691406 155.671875 -204.421875 C 155.402344 -203.882812 154.867188 -204.152344 154.597656 -204.691406 C 153.789062 -206.308594 154.867188 -207.117188 155.671875 -206.039062 Z M 141.667969 -173.179688 C 142.746094 -176.679688 145.167969 -183.144531 145.707031 -183.144531 C 145.976562 -183.144531 144.898438 -179.375 143.015625 -174.796875 C 141.398438 -170.488281 140.589844 -169.679688 141.667969 -173.179688 Z M 110.964844 -101.539062 C 111.773438 -103.152344 113.117188 -106.925781 114.195312 -109.347656 C 115.273438 -112.042969 117.699219 -117.429688 119.582031 -121.738281 C 121.46875 -125.777344 123.085938 -129.546875 123.085938 -129.816406 C 123.085938 -130.355469 123.890625 -132.242188 124.699219 -134.125 C 125.777344 -136.011719 128.203125 -141.667969 130.355469 -146.515625 C 132.242188 -151.363281 134.933594 -157.828125 136.28125 -160.789062 C 137.628906 -164.023438 138.4375 -166.714844 138.167969 -167.253906 C 138.167969 -167.523438 138.4375 -168.332031 139.242188 -168.871094 C 141.128906 -170.21875 141.398438 -168.601562 139.78125 -166.175781 C 139.242188 -165.371094 135.742188 -157.558594 131.972656 -148.402344 C 122.816406 -126.855469 122.816406 -126.585938 116.351562 -111.234375 C 113.117188 -103.960938 108.539062 -92.378906 105.847656 -85.109375 C 103.152344 -77.835938 100.460938 -71.371094 99.921875 -70.566406 C 98.574219 -68.949219 108.269531 -95.882812 110.964844 -101.539062 Z M 119.3125 -111.773438 C 117.429688 -106.925781 115.273438 -102.613281 114.734375 -101.808594 C 113.925781 -101 120.390625 -116.621094 122.007812 -119.851562 C 124.160156 -123.621094 123.085938 -120.390625 119.3125 -111.773438 Z M 114.195312 -100.191406 C 114.195312 -99.652344 113.65625 -97.765625 112.851562 -95.882812 C 112.042969 -93.996094 111.234375 -92.917969 111.234375 -93.457031 C 111.234375 -93.996094 112.042969 -95.882812 112.851562 -97.765625 C 113.65625 -99.652344 114.195312 -100.460938 114.195312 -100.191406 Z M 109.078125 -85.109375 C 109.078125 -84.300781 108.808594 -83.492188 108.269531 -83.222656 C 108 -82.953125 107.464844 -83.222656 107.464844 -84.03125 C 107.464844 -84.839844 108 -85.648438 108.269531 -85.917969 C 108.808594 -86.457031 109.078125 -85.917969 109.078125 -85.109375 Z M 79.183594 -23.164062 C 81.070312 -23.96875 83.492188 -25.046875 84.03125 -25.585938 C 84.839844 -26.125 86.992188 -26.933594 88.878906 -27.203125 C 90.765625 -28.011719 92.917969 -28.550781 93.726562 -28.820312 C 94.535156 -29.085938 95.074219 -28.820312 95.074219 -28.28125 C 94.535156 -24.777344 95.074219 -23.699219 96.691406 -23.433594 C 98.035156 -23.433594 98.035156 -23.433594 97.226562 -22.625 C 95.613281 -21.277344 94.265625 -21.546875 94.265625 -23.164062 C 94.265625 -24.777344 91.574219 -25.046875 91.035156 -23.699219 C 90.765625 -23.164062 89.417969 -22.625 88.070312 -22.625 C 86.722656 -22.625 82.414062 -21.816406 78.644531 -20.738281 C 74.875 -19.660156 71.101562 -18.582031 70.296875 -18.582031 C 67.601562 -17.507812 75.144531 -21.816406 79.183594 -23.164062 Z M 64.101562 -9.695312 C 63.292969 -9.15625 62.214844 -8.617188 61.40625 -8.617188 C 59.523438 -8.617188 60.0625 -9.15625 63.023438 -9.964844 C 64.640625 -10.234375 64.910156 -10.234375 64.101562 -9.695312 Z M 66.523438 -10.503906 C 65.984375 -10.503906 65.449219 -10.773438 65.714844 -11.042969 C 65.984375 -11.3125 66.523438 -11.3125 67.0625 -11.042969 C 67.601562 -10.773438 67.601562 -10.503906 66.523438 -10.503906 Z M 88.878906 -13.464844 C 88.070312 -13.195312 87.53125 -13.464844 87.800781 -13.734375 C 88.070312 -14.003906 88.609375 -14.273438 89.148438 -14.003906 C 89.6875 -13.734375 89.6875 -13.464844 88.878906 -13.464844 Z M 92.917969 -14.273438 C 91.84375 -14.273438 91.304688 -14.542969 91.84375 -14.8125 C 92.378906 -15.082031 93.1875 -15.082031 93.726562 -14.8125 C 94.265625 -14.542969 93.726562 -14.273438 92.917969 -14.273438 Z M 101.539062 -19.390625 C 99.113281 -18.316406 99.382812 -18.046875 102.347656 -16.699219 C 103.152344 -16.699219 101.808594 -16.160156 99.652344 -15.621094 C 97.496094 -15.351562 95.34375 -15.351562 95.074219 -15.621094 C 95.074219 -15.890625 95.613281 -16.160156 96.691406 -16.160156 C 97.765625 -16.160156 98.574219 -16.699219 98.574219 -17.238281 C 98.574219 -18.316406 94.265625 -17.777344 89.417969 -16.429688 C 88.609375 -16.429688 85.378906 -15.621094 82.144531 -14.8125 C 78.914062 -14.003906 74.605469 -12.929688 72.988281 -12.390625 C 71.101562 -11.851562 69.21875 -11.582031 68.679688 -11.582031 C 65.179688 -11.582031 92.378906 -19.390625 99.382812 -20.199219 C 104.230469 -20.738281 104.230469 -20.738281 101.539062 -19.390625 Z M 107.730469 -17.507812 C 108.269531 -17.238281 107.730469 -17.238281 106.925781 -17.238281 C 105.847656 -17.238281 105.578125 -17.238281 105.847656 -17.507812 C 106.386719 -18.046875 107.195312 -18.046875 107.730469 -17.507812 Z M 160.519531 -194.726562 C 158.097656 -188.261719 159.714844 -189.609375 162.945312 -196.613281 C 164.5625 -200.652344 166.175781 -203.613281 166.445312 -203.613281 C 166.714844 -203.613281 164.5625 -196.882812 162.945312 -192.570312 C 162.136719 -190.417969 161.328125 -187.453125 161.058594 -185.570312 C 160.789062 -183.953125 160.25 -182.066406 159.984375 -181.796875 C 158.367188 -178.566406 148.671875 -155.671875 147.324219 -151.09375 C 146.246094 -148.132812 142.746094 -140.050781 139.511719 -133.050781 C 136.28125 -126.316406 131.164062 -114.734375 128.203125 -107.464844 C 125.238281 -100.460938 121.46875 -91.574219 119.851562 -87.800781 C 116.621094 -80.53125 106.925781 -56.019531 104.230469 -48.210938 C 103.152344 -45.515625 102.347656 -43.363281 102.078125 -43.363281 C 101.808594 -43.363281 101.808594 -43.902344 102.078125 -44.707031 C 102.613281 -45.785156 102.347656 -46.054688 100.730469 -45.515625 L 98.84375 -44.976562 L 99.921875 -49.828125 C 101.269531 -55.480469 105.578125 -69.21875 106.65625 -71.910156 C 107.730469 -73.796875 109.078125 -78.644531 109.347656 -80.53125 C 109.886719 -82.414062 113.65625 -89.417969 114.195312 -89.417969 C 114.734375 -89.417969 115.003906 -89.957031 115.003906 -90.765625 C 115.003906 -91.574219 119.3125 -102.613281 124.160156 -115.003906 C 129.546875 -127.394531 135.472656 -141.9375 137.628906 -147.324219 C 145.976562 -167.792969 150.015625 -177.21875 151.363281 -179.375 C 151.902344 -180.722656 154.867188 -187.183594 157.558594 -193.917969 C 160.25 -200.652344 165.371094 -213.308594 169.410156 -222.199219 C 173.179688 -230.816406 176.410156 -238.359375 176.679688 -238.898438 C 176.679688 -239.433594 177.21875 -239.433594 177.488281 -239.164062 C 178.027344 -238.628906 174.796875 -230.277344 160.519531 -194.726562 Z M 261.789062 -333.699219 C 262.328125 -333.96875 263.136719 -333.96875 263.675781 -333.699219 C 264.214844 -333.699219 263.675781 -333.433594 262.867188 -333.433594 C 261.789062 -333.433594 261.519531 -333.699219 261.789062 -333.699219 Z M 152.710938 -176.140625 C 151.632812 -173.988281 147.59375 -164.292969 147.59375 -163.753906 C 147.59375 -163.484375 147.863281 -163.484375 148.132812 -163.484375 C 148.402344 -163.484375 150.015625 -166.714844 151.902344 -171.023438 C 153.519531 -175.066406 154.597656 -178.296875 154.328125 -178.296875 C 154.058594 -178.296875 153.25 -177.488281 152.710938 -176.140625 Z M 152.710938 -176.140625 "/></g></g></g></svg>